<svg xmlns="http://www.w3.org/2000/svg" viewBox="0 0 32 32" fill="none" stroke="#231f20" stroke-miterlimit="10" stroke-width=".25"><path d="M25.84 10.92A6 6 0 0 1 24 15.07l-.08.08a13 13 0 0 1-9.33 3.44 15.19 15.19 0 0 1-5.3-.92A10.91 10.91 0 0 1 7.78 17l-.14-.08h0l-.1.05A22.67 22.67 0 0 1 2 18.55C3.37 18 5 17 5.45 15.32a6.17 6.17 0 0 1-2-4.4c0-4.24 5-7.68 11.21-7.68s11.18 3.44 11.18 7.68z"/><path d="M29.72 28.85a22.67 22.67 0 0 1-5.53-1.61h-.1 0a10.42 10.42 0 0 1-1.69.78 15.09 15.09 0 0 1-5.29.92c-4 0-7.42-1.4-9.4-3.52a6 6 0 0 1-1.8-4.15A6.06 6.06 0 0 1 7.78 17a10.91 10.91 0 0 0 1.55.7 15.19 15.19 0 0 0 5.3.92A13 13 0 0 0 24 15.15c2.64 1.41 4.34 3.6 4.34 6.07a6.17 6.17 0 0 1-2 4.4c.4 1.64 2.01 2.63 3.38 3.23z"/></svg>